<svg xmlns="http://www.w3.org/2000/svg" viewBox="0 0 120 120" width="100%" height="100%">
  <defs>
    <linearGradient id="teenGrad" x1="0%" y1="0%" x2="100%" y2="100%">
      <stop offset="0%" stop-color="#06B6D4" />
      <stop offset="50%" stop-color="#3B82F6" />
      <stop offset="100%" stop-color="#8B5CF6" />
    </linearGradient>
    <linearGradient id="warmShieldGrad" x1="0%" y1="0%" x2="100%" y2="100%">
      <stop offset="0%" stop-color="#F59E0B" />
      <stop offset="100%" stop-color="#10B981" />
    </linearGradient>
    <linearGradient id="bgGrad" x1="0%" y1="0%" x2="100%" y2="100%">
      <stop offset="0%" stop-color="#0F172A" />
      <stop offset="100%" stop-color="#051926" />
    </linearGradient>
    <filter id="softGlow" x="-20%" y="-20%" width="140%" height="140%">
      <feDropShadow dx="0" dy="4" stdDeviation="5" flood-color="#06B6D4" flood-opacity="0.4" />
    </filter>
  </defs>

  <!-- Container -->
  <rect x="8" y="8" width="104" height="104" rx="26" fill="url(#bgGrad)" stroke="#1E3A5F" stroke-width="1.5" />
  
  <!-- Subtle Aura Ring -->
  <circle cx="60" cy="54" r="36" fill="url(#teenGrad)" opacity="0.12" />

  <!-- Shield of Protection & Empathetic Connection -->
  <path d="M60 28 L84 38 C84 60 72 74 60 82 C48 74 36 60 36 38 Z" 
        fill="url(#teenGrad)" opacity="0.25" />

  <!-- Rising Growth Spark & Bridge of Connection -->
  <!-- Brain / Empathy Waves -->
  <path d="M44 56 Q52 44 60 52 T76 48" fill="none" stroke="#38BDF8" stroke-width="3" stroke-linecap="round" filter="url(#softGlow)" />
  
  <!-- Teen Figure / Star Silhouette -->
  <circle cx="60" cy="38" r="8" fill="url(#warmShieldGrad)" />
  <path d="M50 64 C50 54 54 50 60 50 C66 50 70 54 70 64 Z" fill="#F8FAFC" />

  <!-- Heart of Compassion (NVC) inside center -->
  <path d="M60 58 C60 58 56 54 54 54 C52 54 51 55.5 51 57 C51 59 53 60.5 60 64 C67 60.5 69 59 69 57 C69 55.5 68 54 66 54 C64 54 60 58 60 58 Z" fill="#EF4444" />

  <!-- Sparkles -->
  <path d="M34 32 L35.5 28 L37 32 L41 33.5 L37 35 L35.5 39 L34 35 L30 33.5 Z" fill="#FDE047" opacity="0.95" />
  <path d="M84 60 L85.5 57 L87 60 L90 61.5 L87 63 L85.5 66 L84 63 L81 61.5 Z" fill="#FDE047" opacity="0.85" />

  <!-- Bottom Label -->
  <text x="60" y="99" font-family="-apple-system, BlinkMacSystemFont, 'Segoe UI', Roboto, sans-serif" font-size="8" font-weight="900" fill="#38BDF8" text-anchor="middle" letter-spacing="1">TUỔI 12-15</text>
</svg>
